<?xml version="1.0" encoding="utf-8" ?><svg xmlns="http://www.w3.org/2000/svg" xmlns:xlink="http://www.w3.org/1999/xlink" width="1024" height="1024" viewBox="0 0 1024 1024"><path fill="#D2C8AC" d="M358.054 657.223C322.467 618.005 300.804 566.011 302.412 513.261C302.473 504.15 301.964 495.013 303.566 485.993C304.281 481.962 304.942 477.873 305.702 473.858C317.774 410.137 371.812 320.763 447.611 335.567C476.934 341.183 510.951 367.976 503.335 401.191C496.212 432.256 461.191 455.56 431.568 461.363C411.995 464.312 395.556 465.068 378.478 476.366C358.744 489.421 354.375 518.356 365.955 538.085C366.081 538.258 366.206 538.431 366.331 538.604C367.505 540.68 368.429 543.072 369.592 545.308C374.287 554.334 384.995 560.362 394.993 562.552C412.898 566.474 433.236 571.945 425.234 596.014C418.56 616.093 398.362 632.411 380.994 643.233C375.425 646.653 362.327 653.378 358.054 657.223Z"/><path fill="#D2C8AC" d="M546.457 723.415C554.835 717.143 561.805 711.976 569.249 704.327C577.217 696.14 586.796 679.25 586.375 667.694C585.74 650.233 565.278 647.07 552.241 641.314C546.669 638.838 541.535 635.474 537.041 631.352C510.716 606.779 531.112 573.831 551.067 553.224C575.279 528.222 613.385 508.133 648.902 509.633C669.471 510.502 691.935 519.018 711.91 511.988C715.079 510.855 720.934 505.848 723.996 505.796C724.718 507.36 724.454 506.988 724.114 509.039C724.083 516.789 724.535 527.117 723.757 534.521C718.431 585.25 694.729 633.125 657.723 668.255C639.833 685.238 610.336 705.165 586.332 712.553C578.27 715.42 570.076 717.902 561.778 719.99C556.438 721.283 552.015 721.857 546.457 723.415Z"/><path fill="#AA8C70" d="M724.114 509.039C724.083 516.789 724.535 527.117 723.757 534.521C718.431 585.25 694.729 633.125 657.723 668.255C639.833 685.238 610.336 705.165 586.332 712.553C588.78 709.817 599.239 701.894 602.748 698.973C619.241 685.25 639.873 668.883 651.121 650.536C653.855 646.075 655.979 637.967 654.134 633.04C650.765 623.609 639.53 622.467 631.612 618.436C619.876 612.46 612.952 602.251 620.195 589.409C630.72 570.744 649.078 572.004 666.611 567.428C687.026 562.1 706.704 545.521 716.076 526.826C718.794 521.545 720.967 514.71 723.702 509.769L724.114 509.039Z"/><path fill="#AA8C70" d="M366.331 538.604C367.303 527.185 366.583 520.769 376.45 512.551C403.322 489.061 435.717 525.697 462.24 513.49C490.349 500.552 501.045 462.377 524.227 442.322C537.394 430.93 565.348 413.018 580.152 432.18C593.684 449.695 580.905 475.411 564.072 485.718C540.393 500.341 511.603 502.194 491.184 524.052C470.796 545.876 458.968 574.603 445.534 600.989C427.658 635.813 399.835 648.604 367.033 664.926C363.795 662.667 360.957 659.904 358.054 657.223C362.327 653.378 375.425 646.653 380.994 643.233C398.362 632.411 418.56 616.093 425.234 596.014C433.236 571.945 412.898 566.474 394.993 562.552C384.995 560.362 374.287 554.334 369.592 545.308C368.429 543.072 367.505 540.68 366.331 538.604Z"/><path fill="#AA8C70" d="M501.857 299.713C503.457 299.323 511.46 299.375 513.66 299.331C538.991 298.972 565.561 304.952 589.181 313.735C605.286 319.724 639.832 339.213 630.414 360.88C609.662 378.711 583.873 349.889 564.914 342.926C559.898 341.083 554.464 339.068 549.125 338.484C532.918 338.147 521.332 342.141 508.72 352.722C504.848 355.97 501.136 360.161 497.236 363.651C482.935 334.02 445.767 318.658 414.257 326.539C427.786 316.477 463.28 304.599 480.437 301.868C487.461 300.749 494.714 300.574 501.857 299.713Z"/><path fill="#D2C8AC" d="M671.787 392.098C685.469 391.231 693.982 398.851 701.886 409.076C711.378 421.354 724.858 454.172 714.946 468.544C713.009 471.396 709.993 473.334 706.594 473.91C683.535 474.085 668.789 449.795 662.151 430.473C660.207 424.815 659.859 419.546 659.918 413.598C660.021 403.272 660.781 395.439 671.787 392.098Z"/><path fill="#AA8C70" d="M499.874 663.673C504.991 663.398 509.597 663.319 513.673 666.957C526.093 678.041 496.378 692.964 498.042 712.448C498.477 717.539 501.289 721.175 505.131 724.306C488.048 725.103 460.322 719.917 444.473 713.979C439.141 711.608 412.94 701.953 411.061 698.39L411.546 697.348C418.428 691.932 440.159 696.177 448.433 694.236C455.098 692.672 463.177 683.098 468.8 678.487C477.87 671.05 488.232 665.638 499.874 663.673Z"/></svg>