<?xml version="1.0" encoding="utf-8" ?><svg xmlns="http://www.w3.org/2000/svg" width="1024" height="1024" viewBox="0 0 1024 1024"><rect width="1024" height="1024" rx="200" fill="#2E2622"/><path fill="#e8dec7" d="M477.814 382.693C483.97 381.893 498.064 382.373 504.806 382.46L555.563 383.289C565.829 383.499 576.097 383.62 586.365 383.653C593.896 383.646 603.682 383.325 611.002 384.13L722.511 604.218L754.223 667.101C764.159 686.941 776.178 715.855 790.729 731.71C803.943 746.107 824.335 746.22 842.591 746.224C842.985 762.277 842.434 778.115 842.897 794.072L604.217 793.968C603.703 779.226 604.062 762.754 604.082 747.884C610.325 747.561 623.096 747.647 628.486 745.915C647.966 739.657 643.493 717.475 636.547 703.426C634.804 699.901 631.774 694.086 630.666 690.299C597.333 687.864 563.55 680.406 536.362 660.18C522.14 649.599 505.954 636.069 492.53 624.411C474.619 608.854 461.362 597.123 437.728 590.289C426.595 615.801 412.38 642.187 400.432 667.513C393.648 681.893 384.032 697.994 379.21 713.122C376.967 720.156 378.139 731.856 382.089 738.261C389.377 750.078 406.355 745.807 417.439 748.372C418.679 749.539 418.193 748.792 418.278 751.125C417.783 764.949 418.049 780.435 418.031 794.349C411.989 793.602 398.607 793.959 391.897 793.962L343.995 793.954L181.556 793.998C181.635 778.103 181.623 762.207 181.52 746.312C206.448 745.581 223.778 745.33 239.08 722.802C253.597 701.429 263.29 677.548 274.458 654.321L332.637 533.262C348.412 523.254 382.739 520.921 400.786 519.265C451.67 514.597 491.548 532.244 531.727 561.635C545.704 571.86 561.782 582.465 578.112 589.404C574.607 580.491 568.315 568.722 563.932 559.995L540.724 513.799L518.425 469.569C515.096 463.026 509.511 451.569 505.706 445.514C502.612 449.88 497.097 462.22 494.718 467.262C488.688 480.046 483.152 492.051 476.195 504.413C437.429 488.133 386.301 491.828 346.728 503.788C349.923 495.988 353.221 490.69 356.964 483.368C361.084 475.655 363.98 466.794 368.312 459.239C387.001 426.644 416.857 397.802 453.499 387.013C461.722 384.591 469.567 383.68 477.814 382.693Z"/><path fill="#e8dec7" d="M713.585 394.583C727.607 394.055 742.223 395.585 755.961 394.715C763.271 398.333 769.985 403.623 777.693 406.381C787.36 409.841 826.016 408.043 839.028 408.019C841.513 424.83 843.292 437.137 843.059 454.29C842.402 502.782 825.99 549.229 796.537 587.701C788.522 598.17 781.302 605.453 772.058 614.693C768.127 618.266 763.787 622.403 759.069 624.839C752.622 609.39 745.174 595.224 738.736 580.243L759.818 533.059C755.973 525.529 750.254 513.686 745.682 507.032C731.213 506.398 712.71 506.946 698.049 506.979C693.305 497.86 688.707 487.682 684.252 478.312C680.923 471.309 676.206 461.951 673.475 454.916C676.63 446.477 683.826 435.159 688.219 426.919C695.259 413.714 698.851 400.648 713.585 394.583Z"/><path fill="#e8dec7" d="M608.199 230.28C632.866 228.082 663.093 233.101 686.668 240.388C683.876 247.726 668.603 274.795 661.36 279.245C657.974 281.325 649.331 283.403 645.05 287.349C638.015 293.833 632.424 301.718 626.341 309.104C622.705 313.518 618.297 318.491 615.063 322.976C603.308 309.003 590.868 287.803 586.151 270.045C577.529 273.544 559.149 281.077 551.535 285.801C549.902 293.077 550.171 299.582 550.197 306.982C560.759 304.378 568.213 304.921 579.022 305.368C581.375 307.262 584.339 310.269 586.26 312.583C579.747 318.834 573.807 325.458 567.577 331.96C564.711 334.951 560.661 339.538 557.532 342.096C553.62 341.632 549.661 341.527 545.723 341.363C536.078 340.598 525.409 341.345 515.879 340.899C499.732 340.143 492.591 340.468 480.794 352.346C474.438 358.746 466.396 366.399 459.676 371.892C443.245 372.252 423.63 370.694 408.197 371.422C418.978 347.191 431.847 325.767 449.621 305.902C490.274 260.547 547.368 233.321 608.199 230.28Z"/><path fill="#e8dec7" d="M711.483 250.368C713.898 250.786 718.812 253.319 721.014 254.469C760.444 275.053 792.947 305.01 814.697 344.006C821.373 355.975 826.632 366.871 830.741 380.105C817.614 381.552 803.539 382.018 790.236 382.979C786.186 380.946 781.148 377.615 777.211 375.165C770.804 370.587 752.45 359.19 744.684 358.8C733.752 358.252 722.485 371.494 713.155 375.581C706.55 378.474 696.31 379.966 689.014 381.08C686.591 374.566 682.269 336.408 683.829 330.606C688.976 325.009 701.576 323.267 709.095 321.711C705.785 311.791 701.219 296.761 698.842 286.648C702.143 275.399 706.946 261.133 711.483 250.368Z"/></svg>